<mxfile host="app.diagrams.net" agent="Mozilla/5.0 (Macintosh; Intel Mac OS X 10_15_7) AppleWebKit/537.36 (KHTML, like Gecko) Chrome/139.0.0.0 Safari/537.36" version="28.2.0" pages="2">
  <diagram name="Page-1" id="8R3-ouWrvR0PYowqYxrW">
    <mxGraphModel dx="-2014" dy="3580" grid="1" gridSize="10" guides="1" tooltips="1" connect="1" arrows="1" fold="1" page="1" pageScale="1" pageWidth="850" pageHeight="1100" math="0" shadow="0">
      <root>
        <mxCell id="0" />
        <mxCell id="1" parent="0" />
        <mxCell id="jmSIG3X0HEFknxVYifZG-119" value="" style="rounded=0;whiteSpace=wrap;html=1;fillColor=#ffe6cc;opacity=90;dashed=1;dashPattern=8 8;strokeColor=#d79b00;strokeWidth=3;" parent="1" vertex="1">
          <mxGeometry x="8090" y="1148.4" width="660" height="440" as="geometry" />
        </mxCell>
        <mxCell id="jmSIG3X0HEFknxVYifZG-1" value="" style="rounded=0;whiteSpace=wrap;html=1;fillColor=#ffe6cc;opacity=90;dashed=1;dashPattern=8 8;strokeColor=#d79b00;strokeWidth=3;" parent="1" vertex="1">
          <mxGeometry x="6320" y="280" width="720" height="440" as="geometry" />
        </mxCell>
        <mxCell id="jmSIG3X0HEFknxVYifZG-2" value="" style="rounded=0;whiteSpace=wrap;html=1;fillColor=#647687;opacity=50;dashed=1;dashPattern=8 8;fontColor=#ffffff;strokeColor=#314354;" parent="1" vertex="1">
          <mxGeometry x="6310" y="600" width="310" height="440" as="geometry" />
        </mxCell>
        <mxCell id="jmSIG3X0HEFknxVYifZG-3" value="" style="image;html=1;image=img/lib/clip_art/networking/Router_128x128.png" parent="1" vertex="1">
          <mxGeometry x="6620" y="290" width="80" height="80" as="geometry" />
        </mxCell>
        <mxCell id="jmSIG3X0HEFknxVYifZG-4" value="pfSense 2.7.2&amp;nbsp;" style="text;html=1;align=center;verticalAlign=middle;whiteSpace=wrap;rounded=0;" parent="1" vertex="1">
          <mxGeometry x="6330" y="290" width="110" height="30" as="geometry" />
        </mxCell>
        <mxCell id="jmSIG3X0HEFknxVYifZG-5" value="" style="image;html=1;image=img/lib/clip_art/networking/Router_128x128.png" parent="1" vertex="1">
          <mxGeometry x="6840" y="610" width="80" height="80" as="geometry" />
        </mxCell>
        <mxCell id="jmSIG3X0HEFknxVYifZG-6" value="" style="image;html=1;image=img/lib/clip_art/networking/Router_128x128.png" parent="1" vertex="1">
          <mxGeometry x="6390" y="620" width="80" height="80" as="geometry" />
        </mxCell>
        <mxCell id="jmSIG3X0HEFknxVYifZG-7" value="" style="image;html=1;image=img/lib/clip_art/general/Earth_globe_128x128.png" parent="1" vertex="1">
          <mxGeometry x="6620" y="50" width="80" height="80" as="geometry" />
        </mxCell>
        <mxCell id="jmSIG3X0HEFknxVYifZG-8" value="" style="image;html=1;image=img/lib/clip_art/computers/Monitor_Tower_128x128.png" parent="1" vertex="1">
          <mxGeometry x="6410" y="931" width="80" height="80" as="geometry" />
        </mxCell>
        <mxCell id="jmSIG3X0HEFknxVYifZG-9" value="" style="image;html=1;image=img/lib/clip_art/computers/Monitor_Tower_128x128.png" parent="1" vertex="1">
          <mxGeometry x="6920" y="931" width="80" height="80" as="geometry" />
        </mxCell>
        <mxCell id="jmSIG3X0HEFknxVYifZG-10" value="" style="shape=image;html=1;verticalAlign=top;verticalLabelPosition=bottom;labelBackgroundColor=#ffffff;imageAspect=0;aspect=fixed;image=https://icons.diagrams.net/icon-cache1/Security_Double_Color_Red_and_black_vol_2-2413/fire__wall__firewall__security-520.svg" parent="1" vertex="1">
          <mxGeometry x="6424" y="750" width="52" height="52" as="geometry" />
        </mxCell>
        <mxCell id="jmSIG3X0HEFknxVYifZG-11" value="OS for PS" style="text;html=1;align=center;verticalAlign=middle;whiteSpace=wrap;rounded=0;" parent="1" vertex="1">
          <mxGeometry x="6905" y="180" width="110" height="30" as="geometry" />
        </mxCell>
        <mxCell id="jmSIG3X0HEFknxVYifZG-12" value="One device&amp;nbsp;&lt;div&gt;&lt;br&gt;&lt;/div&gt;&lt;div&gt;Dotted for subnet&amp;nbsp;&lt;/div&gt;&lt;div&gt;any way going out nbeeds a firewall - making sure traffice fgooing in inbound and outbound&amp;nbsp;&lt;/div&gt;" style="text;html=1;align=center;verticalAlign=middle;whiteSpace=wrap;rounded=0;" parent="1" vertex="1">
          <mxGeometry x="6910" y="70" width="110" height="30" as="geometry" />
        </mxCell>
        <mxCell id="jmSIG3X0HEFknxVYifZG-13" value="Public IP - within VM - Waht is public IP website" style="text;html=1;align=center;verticalAlign=middle;whiteSpace=wrap;rounded=0;" parent="1" vertex="1">
          <mxGeometry x="6930" y="1080" width="60" height="30" as="geometry" />
        </mxCell>
        <mxCell id="jmSIG3X0HEFknxVYifZG-14" value="" style="endArrow=classic;html=1;rounded=0;" parent="1" edge="1">
          <mxGeometry width="50" height="50" relative="1" as="geometry">
            <mxPoint x="6910" y="905" as="sourcePoint" />
            <mxPoint x="6960" y="855" as="targetPoint" />
          </mxGeometry>
        </mxCell>
        <mxCell id="jmSIG3X0HEFknxVYifZG-15" value="DDifferent defualt gateways so different router traffice -&amp;gt; AND SUBNET&amp;nbsp; &amp;nbsp;" style="text;html=1;align=center;verticalAlign=middle;whiteSpace=wrap;rounded=0;" parent="1" vertex="1">
          <mxGeometry x="6800" y="1090" width="65" height="75" as="geometry" />
        </mxCell>
        <mxCell id="jmSIG3X0HEFknxVYifZG-16" value="" style="endArrow=classic;html=1;rounded=0;" parent="1" edge="1">
          <mxGeometry width="50" height="50" relative="1" as="geometry">
            <mxPoint x="6433" y="890" as="sourcePoint" />
            <mxPoint x="6483" y="840" as="targetPoint" />
          </mxGeometry>
        </mxCell>
        <mxCell id="jmSIG3X0HEFknxVYifZG-17" value="" style="shape=image;html=1;verticalAlign=top;verticalLabelPosition=bottom;labelBackgroundColor=#ffffff;imageAspect=0;aspect=fixed;image=https://icons.diagrams.net/icon-cache1/Security_Double_Color_Red_and_black_vol_2-2413/fire__wall__firewall__security-520.svg" parent="1" vertex="1">
          <mxGeometry x="6868" y="730" width="52" height="52" as="geometry" />
        </mxCell>
        <mxCell id="jmSIG3X0HEFknxVYifZG-18" value="" style="endArrow=none;html=1;rounded=0;" parent="1" edge="1">
          <mxGeometry width="50" height="50" relative="1" as="geometry">
            <mxPoint x="6630" y="560" as="sourcePoint" />
            <mxPoint x="6680" y="510" as="targetPoint" />
          </mxGeometry>
        </mxCell>
        <mxCell id="jmSIG3X0HEFknxVYifZG-19" value="" style="endArrow=classic;startArrow=classic;html=1;rounded=0;" parent="1" edge="1">
          <mxGeometry x="0.0102" width="50" height="50" relative="1" as="geometry">
            <mxPoint x="6410" y="740" as="sourcePoint" />
            <mxPoint x="6460" y="690" as="targetPoint" />
            <mxPoint as="offset" />
          </mxGeometry>
        </mxCell>
        <mxCell id="jmSIG3X0HEFknxVYifZG-20" value="" style="rounded=0;whiteSpace=wrap;html=1;fillColor=#e51400;opacity=50;dashed=1;dashPattern=8 8;fontColor=#ffffff;strokeColor=#B20000;" parent="1" vertex="1">
          <mxGeometry x="6730" y="610" width="310" height="440" as="geometry" />
        </mxCell>
        <mxCell id="jmSIG3X0HEFknxVYifZG-21" value="" style="endArrow=classic;startArrow=classic;html=1;rounded=0;" parent="1" edge="1">
          <mxGeometry x="0.0102" width="50" height="50" relative="1" as="geometry">
            <mxPoint x="6855" y="730" as="sourcePoint" />
            <mxPoint x="6905" y="680" as="targetPoint" />
            <mxPoint as="offset" />
          </mxGeometry>
        </mxCell>
        <mxCell id="jmSIG3X0HEFknxVYifZG-22" value="" style="shape=image;html=1;verticalAlign=top;verticalLabelPosition=bottom;labelBackgroundColor=#ffffff;imageAspect=0;aspect=fixed;image=https://icons.diagrams.net/icon-cache1/Security_Double_Color_Red_and_black_vol_2-2413/fire__wall__firewall__security-520.svg" parent="1" vertex="1">
          <mxGeometry x="6634" y="238" width="52" height="52" as="geometry" />
        </mxCell>
        <mxCell id="jmSIG3X0HEFknxVYifZG-23" value="" style="endArrow=classic;startArrow=classic;html=1;rounded=0;" parent="1" edge="1">
          <mxGeometry x="0.0102" width="50" height="50" relative="1" as="geometry">
            <mxPoint x="6640" y="190" as="sourcePoint" />
            <mxPoint x="6690" y="140" as="targetPoint" />
            <mxPoint as="offset" />
          </mxGeometry>
        </mxCell>
        <mxCell id="jmSIG3X0HEFknxVYifZG-24" value="" style="rounded=1;whiteSpace=wrap;html=1;" parent="1" vertex="1">
          <mxGeometry x="5990" y="140" width="290" height="300" as="geometry" />
        </mxCell>
        <mxCell id="jmSIG3X0HEFknxVYifZG-25" value="&lt;font style=&quot;font-size: 24px;&quot;&gt;&lt;b&gt;Key&lt;/b&gt;&lt;/font&gt;&amp;nbsp;" style="text;html=1;align=center;verticalAlign=middle;whiteSpace=wrap;rounded=0;" parent="1" vertex="1">
          <mxGeometry x="6090" y="140" width="60" height="30" as="geometry" />
        </mxCell>
        <mxCell id="jmSIG3X0HEFknxVYifZG-26" value="" style="endArrow=none;html=1;rounded=0;exitX=0.004;exitY=0.191;exitDx=0;exitDy=0;exitPerimeter=0;entryX=0.994;entryY=0.178;entryDx=0;entryDy=0;entryPerimeter=0;" parent="1" source="jmSIG3X0HEFknxVYifZG-24" target="jmSIG3X0HEFknxVYifZG-24" edge="1">
          <mxGeometry width="50" height="50" relative="1" as="geometry">
            <mxPoint x="6410" y="375" as="sourcePoint" />
            <mxPoint x="6460" y="325" as="targetPoint" />
          </mxGeometry>
        </mxCell>
        <mxCell id="jmSIG3X0HEFknxVYifZG-27" value="" style="shape=image;html=1;verticalAlign=top;verticalLabelPosition=bottom;labelBackgroundColor=#ffffff;imageAspect=0;aspect=fixed;image=https://icons.diagrams.net/icon-cache1/Security_Double_Color_Red_and_black_vol_2-2413/fire__wall__firewall__security-520.svg" parent="1" vertex="1">
          <mxGeometry x="6010" y="185" width="52" height="52" as="geometry" />
        </mxCell>
        <mxCell id="jmSIG3X0HEFknxVYifZG-28" value="" style="rounded=0;whiteSpace=wrap;html=1;shadow=0;dashed=1;dashPattern=8 8;fillColor=#999999;fontColor=#ffffff;strokeColor=#314354;opacity=50;" parent="1" vertex="1">
          <mxGeometry x="6001" y="265" width="70" height="50" as="geometry" />
        </mxCell>
        <mxCell id="jmSIG3X0HEFknxVYifZG-29" value="&amp;nbsp;Network Firewall" style="text;html=1;align=center;verticalAlign=middle;whiteSpace=wrap;rounded=0;strokeColor=default;" parent="1" vertex="1">
          <mxGeometry x="6110" y="196" width="150" height="30" as="geometry" />
        </mxCell>
        <mxCell id="jmSIG3X0HEFknxVYifZG-30" value="&lt;b&gt;&amp;nbsp;Subnet 1&lt;/b&gt;" style="text;html=1;align=center;verticalAlign=middle;whiteSpace=wrap;rounded=0;strokeColor=default;strokeWidth=1;" parent="1" vertex="1">
          <mxGeometry x="6120" y="275" width="150" height="30" as="geometry" />
        </mxCell>
        <mxCell id="jmSIG3X0HEFknxVYifZG-31" value="" style="endArrow=classic;html=1;rounded=0;" parent="1" edge="1">
          <mxGeometry width="50" height="50" relative="1" as="geometry">
            <mxPoint x="6077" y="289.54999999999995" as="sourcePoint" />
            <mxPoint x="6117" y="289.54999999999995" as="targetPoint" />
          </mxGeometry>
        </mxCell>
        <mxCell id="jmSIG3X0HEFknxVYifZG-32" value="" style="endArrow=classic;html=1;rounded=0;" parent="1" edge="1">
          <mxGeometry width="50" height="50" relative="1" as="geometry">
            <mxPoint x="6065" y="210.54999999999995" as="sourcePoint" />
            <mxPoint x="6105" y="210.54999999999995" as="targetPoint" />
          </mxGeometry>
        </mxCell>
        <mxCell id="jmSIG3X0HEFknxVYifZG-33" value="" style="endArrow=classic;startArrow=classic;html=1;rounded=0;" parent="1" edge="1">
          <mxGeometry x="0.0102" width="50" height="50" relative="1" as="geometry">
            <mxPoint x="6390" y="590" as="sourcePoint" />
            <mxPoint x="6440" y="540" as="targetPoint" />
            <mxPoint as="offset" />
          </mxGeometry>
        </mxCell>
        <mxCell id="jmSIG3X0HEFknxVYifZG-34" value="" style="endArrow=classic;startArrow=classic;html=1;rounded=0;" parent="1" edge="1">
          <mxGeometry x="0.0102" width="50" height="50" relative="1" as="geometry">
            <mxPoint x="6880" y="590" as="sourcePoint" />
            <mxPoint x="6930" y="540" as="targetPoint" />
            <mxPoint as="offset" />
          </mxGeometry>
        </mxCell>
        <mxCell id="jmSIG3X0HEFknxVYifZG-35" value="" style="endArrow=classic;startArrow=classic;html=1;rounded=0;" parent="1" edge="1">
          <mxGeometry x="0.0102" width="50" height="50" relative="1" as="geometry">
            <mxPoint x="6640" y="450" as="sourcePoint" />
            <mxPoint x="6690" y="400" as="targetPoint" />
            <mxPoint as="offset" />
          </mxGeometry>
        </mxCell>
        <mxCell id="jmSIG3X0HEFknxVYifZG-36" value="" style="rounded=0;whiteSpace=wrap;html=1;shadow=0;dashed=1;dashPattern=8 8;fillColor=#e51400;fontColor=#ffffff;strokeColor=#B20000;opacity=50;" parent="1" vertex="1">
          <mxGeometry x="6000.5" y="355" width="70" height="50" as="geometry" />
        </mxCell>
        <mxCell id="jmSIG3X0HEFknxVYifZG-37" value="&lt;b&gt;&amp;nbsp;Subnet 1&lt;/b&gt;" style="text;html=1;align=center;verticalAlign=middle;whiteSpace=wrap;rounded=0;strokeColor=default;strokeWidth=1;" parent="1" vertex="1">
          <mxGeometry x="6119.5" y="365" width="150" height="30" as="geometry" />
        </mxCell>
        <mxCell id="jmSIG3X0HEFknxVYifZG-38" value="" style="endArrow=classic;html=1;rounded=0;" parent="1" edge="1">
          <mxGeometry width="50" height="50" relative="1" as="geometry">
            <mxPoint x="6076.5" y="379.54999999999995" as="sourcePoint" />
            <mxPoint x="6116.5" y="379.54999999999995" as="targetPoint" />
          </mxGeometry>
        </mxCell>
        <mxCell id="jmSIG3X0HEFknxVYifZG-39" value="&lt;b&gt;UbuntuClient (Ubuntu 25.4)&lt;/b&gt;&lt;div&gt;OS: (&lt;span style=&quot;background-color: transparent; color: light-dark(rgb(0, 0, 0), rgb(255, 255, 255));&quot;&gt;Ubuntu&lt;/span&gt;&lt;span style=&quot;background-color: transparent; color: light-dark(rgb(0, 0, 0), rgb(255, 255, 255));&quot;&gt;&amp;nbsp;OS)&amp;nbsp;&lt;/span&gt;&lt;/div&gt;&lt;div&gt;IP:&amp;nbsp;&lt;span style=&quot;text-align: left; background-color: transparent; color: light-dark(rgb(0, 0, 0), rgb(255, 255, 255));&quot;&gt;192.168.15.150&lt;/span&gt;&lt;/div&gt;&lt;div&gt;&lt;font style=&quot;color: rgb(0, 0, 0);&quot;&gt;Subnet&lt;/font&gt;: 225.225.240.0&lt;/div&gt;&lt;div&gt;&lt;font style=&quot;color: rgb(0, 0, 0);&quot;&gt;Gateway&lt;/font&gt;: 192.168.0.1&lt;/div&gt;&lt;div&gt;&lt;font style=&quot;color: rgb(0, 0, 0);&quot;&gt;DNS&lt;/font&gt;: 8.8.8.8&lt;/div&gt;" style="rounded=0;whiteSpace=wrap;html=1;" parent="1" vertex="1">
          <mxGeometry x="6130" y="901" width="170" height="100" as="geometry" />
        </mxCell>
        <mxCell id="jmSIG3X0HEFknxVYifZG-40" value="&lt;b&gt;UbuntuClient (Ubuntu 25.4)&lt;/b&gt;&lt;div&gt;OS: (&lt;span style=&quot;background-color: transparent; color: light-dark(rgb(0, 0, 0), rgb(255, 255, 255));&quot;&gt;Ubuntu&lt;/span&gt;&lt;span style=&quot;background-color: transparent; color: light-dark(rgb(0, 0, 0), rgb(255, 255, 255));&quot;&gt;&amp;nbsp;OS)&amp;nbsp;&lt;/span&gt;&lt;/div&gt;&lt;div&gt;IP:&amp;nbsp;&lt;span style=&quot;text-align: left; background-color: transparent; color: light-dark(rgb(0, 0, 0), rgb(255, 255, 255));&quot;&gt;192.168.15.150&lt;/span&gt;&lt;/div&gt;&lt;div&gt;&lt;font style=&quot;color: rgb(0, 0, 0);&quot;&gt;Subnet&lt;/font&gt;: 225.225.240.0&lt;/div&gt;&lt;div&gt;&lt;font style=&quot;color: rgb(0, 0, 0);&quot;&gt;Gateway&lt;/font&gt;: 192.168.0.1&lt;/div&gt;&lt;div&gt;&lt;font style=&quot;color: rgb(0, 0, 0);&quot;&gt;DNS&lt;/font&gt;: 8.8.8.8&lt;/div&gt;" style="rounded=0;whiteSpace=wrap;html=1;" parent="1" vertex="1">
          <mxGeometry x="6720" y="890" width="170" height="100" as="geometry" />
        </mxCell>
        <mxCell id="jmSIG3X0HEFknxVYifZG-41" value="&lt;b&gt;Gretzky&amp;nbsp;&lt;/b&gt;&lt;div&gt;&lt;font style=&quot;background-color: transparent;&quot;&gt;&lt;b style=&quot;&quot;&gt;&lt;font style=&quot;color: rgb(0, 0, 0);&quot;&gt;Private&lt;/font&gt;&lt;font style=&quot;color: rgb(0, 0, 0);&quot;&gt;&amp;nbsp;IP&lt;/font&gt;&lt;/b&gt;&lt;/font&gt;&lt;span style=&quot;background-color: transparent;&quot;&gt;&lt;font style=&quot;color: rgb(0, 0, 0);&quot;&gt;:&lt;/font&gt;&lt;/span&gt;&lt;span style=&quot;background-color: transparent; color: light-dark(rgb(0, 0, 0), rgb(255, 255, 255));&quot;&gt; 192&lt;/span&gt;&lt;span style=&quot;background-color: transparent; color: light-dark(rgb(0, 0, 0), rgb(255, 255, 255)); text-align: left;&quot; data-end=&quot;383&quot; data-start=&quot;364&quot;&gt;.168.0.1&lt;/span&gt;&lt;/div&gt;" style="rounded=0;whiteSpace=wrap;html=1;" parent="1" vertex="1">
          <mxGeometry x="6149.5" y="622" width="120" height="50" as="geometry" />
        </mxCell>
        <mxCell id="jmSIG3X0HEFknxVYifZG-54" value="OS for PS" style="text;html=1;align=center;verticalAlign=middle;whiteSpace=wrap;rounded=0;" parent="1" vertex="1">
          <mxGeometry x="8620" y="710" width="110" height="30" as="geometry" />
        </mxCell>
        <mxCell id="jmSIG3X0HEFknxVYifZG-86" value="" style="rounded=0;whiteSpace=wrap;html=1;fillColor=#ffe6cc;opacity=90;dashed=1;dashPattern=8 8;strokeColor=#d79b00;strokeWidth=3;" parent="1" vertex="1">
          <mxGeometry x="7400" y="1158" width="660" height="440" as="geometry" />
        </mxCell>
        <mxCell id="jmSIG3X0HEFknxVYifZG-87" value="&lt;p style=&quot;margin: 0px; font-variant-numeric: normal; font-variant-east-asian: normal; font-variant-alternates: normal; font-size-adjust: none; font-kerning: auto; font-optical-sizing: auto; font-feature-settings: normal; font-variation-settings: normal; font-variant-position: normal; font-variant-emoji: normal; font-stretch: normal; font-size: 11px; line-height: normal; font-family: Arial; text-align: start;&quot; class=&quot;p1&quot;&gt;OPNsense 24.7.12&lt;/p&gt;" style="text;html=1;align=center;verticalAlign=middle;whiteSpace=wrap;rounded=0;" parent="1" vertex="1">
          <mxGeometry x="8135" y="1180" width="110" height="30" as="geometry" />
        </mxCell>
        <mxCell id="jmSIG3X0HEFknxVYifZG-88" value="" style="rounded=0;whiteSpace=wrap;html=1;fillColor=#99FF33;opacity=50;dashed=1;dashPattern=8 8;fontColor=#ffffff;strokeColor=#314354;" parent="1" vertex="1">
          <mxGeometry x="7440" y="1430" width="580" height="440" as="geometry" />
        </mxCell>
        <mxCell id="jmSIG3X0HEFknxVYifZG-89" value="" style="image;html=1;image=img/lib/clip_art/networking/Router_128x128.png" parent="1" vertex="1">
          <mxGeometry x="7704" y="1475" width="80" height="80" as="geometry" />
        </mxCell>
        <mxCell id="jmSIG3X0HEFknxVYifZG-90" value="" style="image;html=1;image=img/lib/clip_art/computers/Monitor_Tower_128x128.png" parent="1" vertex="1">
          <mxGeometry x="7540" y="1771" width="80" height="80" as="geometry" />
        </mxCell>
        <mxCell id="jmSIG3X0HEFknxVYifZG-91" value="" style="shape=image;html=1;verticalAlign=top;verticalLabelPosition=bottom;labelBackgroundColor=#ffffff;imageAspect=0;aspect=fixed;image=https://icons.diagrams.net/icon-cache1/Security_Double_Color_Red_and_black_vol_2-2413/fire__wall__firewall__security-520.svg" parent="1" vertex="1">
          <mxGeometry x="7704" y="1598" width="52" height="52" as="geometry" />
        </mxCell>
        <mxCell id="jmSIG3X0HEFknxVYifZG-92" value="" style="endArrow=classic;html=1;rounded=0;" parent="1" edge="1">
          <mxGeometry width="50" height="50" relative="1" as="geometry">
            <mxPoint x="7590" y="1700" as="sourcePoint" />
            <mxPoint x="7640" y="1650" as="targetPoint" />
          </mxGeometry>
        </mxCell>
        <mxCell id="jmSIG3X0HEFknxVYifZG-93" value="" style="endArrow=classic;startArrow=classic;html=1;rounded=0;" parent="1" edge="1">
          <mxGeometry x="0.0102" width="50" height="50" relative="1" as="geometry">
            <mxPoint x="7704" y="1598" as="sourcePoint" />
            <mxPoint x="7754" y="1548" as="targetPoint" />
            <mxPoint as="offset" />
          </mxGeometry>
        </mxCell>
        <mxCell id="jmSIG3X0HEFknxVYifZG-94" value="&lt;b&gt;Client A (Window 10)&lt;/b&gt;&lt;div&gt;OS: (&lt;span style=&quot;background-color: transparent; color: light-dark(rgb(0, 0, 0), rgb(255, 255, 255));&quot;&gt;Windows&lt;/span&gt;&lt;span style=&quot;background-color: transparent; color: light-dark(rgb(0, 0, 0), rgb(255, 255, 255));&quot;&gt;&amp;nbsp;OS)&amp;nbsp;&lt;/span&gt;&lt;/div&gt;&lt;div&gt;IP: [***]&lt;span style=&quot;text-align: left; background-color: transparent; color: light-dark(rgb(0, 0, 0), rgb(255, 255, 255));&quot;&gt;.&lt;/span&gt;&lt;span style=&quot;background-color: transparent; color: light-dark(rgb(0, 0, 0), rgb(255, 255, 255));&quot;&gt;[***]&lt;/span&gt;&lt;span style=&quot;background-color: transparent; color: light-dark(rgb(0, 0, 0), rgb(255, 255, 255)); text-align: left;&quot;&gt;.&lt;/span&gt;&lt;span style=&quot;background-color: transparent; color: light-dark(rgb(0, 0, 0), rgb(255, 255, 255));&quot;&gt;[**]&lt;/span&gt;&lt;span style=&quot;background-color: transparent; color: light-dark(rgb(0, 0, 0), rgb(255, 255, 255)); text-align: left;&quot;&gt;.&lt;/span&gt;&lt;span style=&quot;background-color: transparent; color: light-dark(rgb(0, 0, 0), rgb(255, 255, 255));&quot;&gt;[***]&lt;/span&gt;&lt;/div&gt;&lt;div&gt;&lt;font style=&quot;color: rgb(0, 0, 0);&quot;&gt;Subnet&lt;/font&gt;:&amp;nbsp;&lt;span style=&quot;background-color: transparent; color: light-dark(rgb(0, 0, 0), rgb(255, 255, 255));&quot;&gt;[***]&lt;/span&gt;&lt;span style=&quot;background-color: transparent; color: light-dark(rgb(0, 0, 0), rgb(255, 255, 255));&quot;&gt;.&lt;/span&gt;&lt;span style=&quot;background-color: transparent; color: light-dark(rgb(0, 0, 0), rgb(255, 255, 255));&quot;&gt;[***]&lt;/span&gt;&lt;span style=&quot;background-color: transparent; color: light-dark(rgb(0, 0, 0), rgb(255, 255, 255));&quot;&gt;.&lt;/span&gt;&lt;span style=&quot;background-color: transparent; color: light-dark(rgb(0, 0, 0), rgb(255, 255, 255));&quot;&gt;[***]&lt;/span&gt;&lt;span style=&quot;background-color: transparent; color: light-dark(rgb(0, 0, 0), rgb(255, 255, 255));&quot;&gt;.&lt;/span&gt;&lt;span style=&quot;background-color: transparent; color: light-dark(rgb(0, 0, 0), rgb(255, 255, 255));&quot;&gt;[*]&lt;/span&gt;&lt;/div&gt;&lt;div&gt;&lt;font style=&quot;color: rgb(0, 0, 0);&quot;&gt;Gateway&lt;/font&gt;: [***].&lt;span style=&quot;background-color: transparent; color: light-dark(rgb(0, 0, 0), rgb(255, 255, 255));&quot;&gt;[***]&lt;/span&gt;&lt;span style=&quot;background-color: transparent; color: light-dark(rgb(0, 0, 0), rgb(255, 255, 255));&quot;&gt;.&lt;/span&gt;&lt;span style=&quot;background-color: transparent; color: light-dark(rgb(0, 0, 0), rgb(255, 255, 255));&quot;&gt;[*]&lt;/span&gt;&lt;span style=&quot;background-color: transparent; color: light-dark(rgb(0, 0, 0), rgb(255, 255, 255));&quot;&gt;.&lt;/span&gt;&lt;span style=&quot;background-color: transparent; color: light-dark(rgb(0, 0, 0), rgb(255, 255, 255));&quot;&gt;[*]&lt;/span&gt;&lt;/div&gt;&lt;div&gt;&lt;font style=&quot;color: rgb(0, 0, 0);&quot;&gt;DNS&lt;/font&gt;: 8.8.8.8&lt;/div&gt;" style="rounded=0;whiteSpace=wrap;html=1;" parent="1" vertex="1">
          <mxGeometry x="7350" y="1730" width="170" height="100" as="geometry" />
        </mxCell>
        <mxCell id="jmSIG3X0HEFknxVYifZG-95" value="&lt;b&gt;Client B (Window 10)&lt;/b&gt;&lt;div&gt;OS: (&lt;span style=&quot;background-color: transparent; color: light-dark(rgb(0, 0, 0), rgb(255, 255, 255));&quot;&gt;Windows&lt;/span&gt;&lt;span style=&quot;background-color: transparent; color: light-dark(rgb(0, 0, 0), rgb(255, 255, 255));&quot;&gt;&amp;nbsp;OS)&amp;nbsp;&lt;/span&gt;&lt;/div&gt;&lt;div&gt;&lt;div&gt;IP: [***]&lt;span style=&quot;text-align: left; background-color: transparent; color: light-dark(rgb(0, 0, 0), rgb(255, 255, 255));&quot;&gt;.&lt;/span&gt;&lt;span style=&quot;background-color: transparent; color: light-dark(rgb(0, 0, 0), rgb(255, 255, 255));&quot;&gt;[***]&lt;/span&gt;&lt;span style=&quot;background-color: transparent; color: light-dark(rgb(0, 0, 0), rgb(255, 255, 255)); text-align: left;&quot;&gt;.&lt;/span&gt;&lt;span style=&quot;background-color: transparent; color: light-dark(rgb(0, 0, 0), rgb(255, 255, 255));&quot;&gt;[**]&lt;/span&gt;&lt;span style=&quot;background-color: transparent; color: light-dark(rgb(0, 0, 0), rgb(255, 255, 255)); text-align: left;&quot;&gt;.&lt;/span&gt;&lt;span style=&quot;background-color: transparent; color: light-dark(rgb(0, 0, 0), rgb(255, 255, 255));&quot;&gt;[***]&lt;/span&gt;&lt;/div&gt;&lt;div&gt;&lt;font style=&quot;color: rgb(0, 0, 0);&quot;&gt;Subnet&lt;/font&gt;:&amp;nbsp;&lt;span style=&quot;background-color: transparent; color: light-dark(rgb(0, 0, 0), rgb(255, 255, 255));&quot;&gt;[***]&lt;/span&gt;&lt;span style=&quot;background-color: transparent; color: light-dark(rgb(0, 0, 0), rgb(255, 255, 255));&quot;&gt;.&lt;/span&gt;&lt;span style=&quot;background-color: transparent; color: light-dark(rgb(0, 0, 0), rgb(255, 255, 255));&quot;&gt;[***]&lt;/span&gt;&lt;span style=&quot;background-color: transparent; color: light-dark(rgb(0, 0, 0), rgb(255, 255, 255));&quot;&gt;.&lt;/span&gt;&lt;span style=&quot;background-color: transparent; color: light-dark(rgb(0, 0, 0), rgb(255, 255, 255));&quot;&gt;[***]&lt;/span&gt;&lt;span style=&quot;background-color: transparent; color: light-dark(rgb(0, 0, 0), rgb(255, 255, 255));&quot;&gt;.&lt;/span&gt;&lt;span style=&quot;background-color: transparent; color: light-dark(rgb(0, 0, 0), rgb(255, 255, 255));&quot;&gt;[*]&lt;/span&gt;&lt;/div&gt;&lt;div&gt;&lt;font style=&quot;color: rgb(0, 0, 0);&quot;&gt;Gateway&lt;/font&gt;: [***].&lt;span style=&quot;background-color: transparent; color: light-dark(rgb(0, 0, 0), rgb(255, 255, 255));&quot;&gt;[***]&lt;/span&gt;&lt;span style=&quot;background-color: transparent; color: light-dark(rgb(0, 0, 0), rgb(255, 255, 255));&quot;&gt;.&lt;/span&gt;&lt;span style=&quot;background-color: transparent; color: light-dark(rgb(0, 0, 0), rgb(255, 255, 255));&quot;&gt;[*]&lt;/span&gt;&lt;span style=&quot;background-color: transparent; color: light-dark(rgb(0, 0, 0), rgb(255, 255, 255));&quot;&gt;.&lt;/span&gt;&lt;span style=&quot;background-color: transparent; color: light-dark(rgb(0, 0, 0), rgb(255, 255, 255));&quot;&gt;[*]&lt;/span&gt;&lt;/div&gt;&lt;div&gt;&lt;font style=&quot;color: rgb(0, 0, 0);&quot;&gt;DNS&lt;/font&gt;: 8.8.8.8&lt;/div&gt;&lt;/div&gt;" style="rounded=0;whiteSpace=wrap;html=1;" parent="1" vertex="1">
          <mxGeometry x="7705" y="1670" width="170" height="101" as="geometry" />
        </mxCell>
        <mxCell id="jmSIG3X0HEFknxVYifZG-97" value="" style="image;html=1;image=img/lib/clip_art/computers/Monitor_Tower_128x128.png" parent="1" vertex="1">
          <mxGeometry x="7840" y="1771" width="80" height="80" as="geometry" />
        </mxCell>
        <mxCell id="jmSIG3X0HEFknxVYifZG-98" value="" style="endArrow=classic;html=1;rounded=0;" parent="1" edge="1">
          <mxGeometry width="50" height="50" relative="1" as="geometry">
            <mxPoint x="7890" y="1730" as="sourcePoint" />
            <mxPoint x="7940" y="1680" as="targetPoint" />
          </mxGeometry>
        </mxCell>
        <mxCell id="jmSIG3X0HEFknxVYifZG-99" value="Layer 2 Switch A 0f:48:fc:f2:96:0b" style="text;whiteSpace=wrap;html=1;" parent="1" vertex="1">
          <mxGeometry x="7470" y="1465" width="210" height="40" as="geometry" />
        </mxCell>
        <mxCell id="jmSIG3X0HEFknxVYifZG-100" value="&lt;div&gt;&lt;p style=&quot;margin: 0px; font-variant-numeric: normal; font-variant-east-asian: normal; font-variant-alternates: normal; font-size-adjust: none; font-kerning: auto; font-optical-sizing: auto; font-feature-settings: normal; font-variation-settings: normal; font-variant-position: normal; font-variant-emoji: normal; font-stretch: normal; font-size: 11px; line-height: normal; font-family: Arial;&quot; class=&quot;p1&quot;&gt;Network A&lt;/p&gt;&lt;/div&gt;Router A WAN 9c:96:62:0d:85:6a 172.16.0.5 pfSense 2.7.2&lt;br&gt;Router A LAN 25:b1:13:26:9c:a4 192.168.15.1/20" style="text;whiteSpace=wrap;html=1;" parent="1" vertex="1">
          <mxGeometry x="7240" y="1240" width="130" height="50" as="geometry" />
        </mxCell>
        <mxCell id="jmSIG3X0HEFknxVYifZG-101" value="" style="image;html=1;image=img/lib/clip_art/networking/Router_128x128.png" parent="1" vertex="1">
          <mxGeometry x="7704" y="1350" width="80" height="80" as="geometry" />
        </mxCell>
        <mxCell id="jmSIG3X0HEFknxVYifZG-102" value="" style="image;html=1;image=img/lib/clip_art/networking/Router_128x128.png" parent="1" vertex="1">
          <mxGeometry x="7720" y="1195" width="80" height="80" as="geometry" />
        </mxCell>
        <mxCell id="jmSIG3X0HEFknxVYifZG-103" value="" style="endArrow=classic;startArrow=classic;html=1;rounded=0;" parent="1" edge="1">
          <mxGeometry x="0.0102" width="50" height="50" relative="1" as="geometry">
            <mxPoint x="7720" y="1315" as="sourcePoint" />
            <mxPoint x="7770" y="1265" as="targetPoint" />
            <mxPoint as="offset" />
          </mxGeometry>
        </mxCell>
        <mxCell id="jmSIG3X0HEFknxVYifZG-104" value="" style="shape=image;html=1;verticalAlign=top;verticalLabelPosition=bottom;labelBackgroundColor=#ffffff;imageAspect=0;aspect=fixed;image=https://icons.diagrams.net/icon-cache1/Security_Double_Color_Red_and_black_vol_2-2413/fire__wall__firewall__security-520.svg" parent="1" vertex="1">
          <mxGeometry x="7730" y="1300" width="52" height="52" as="geometry" />
        </mxCell>
        <mxCell id="jmSIG3X0HEFknxVYifZG-105" value="" style="shape=image;html=1;verticalAlign=top;verticalLabelPosition=bottom;labelBackgroundColor=#ffffff;imageAspect=0;aspect=fixed;image=https://icons.diagrams.net/icon-cache1/Security_Double_Color_Red_and_black_vol_2-2413/fire__wall__firewall__security-520.svg" parent="1" vertex="1">
          <mxGeometry x="7730" y="1094" width="52" height="52" as="geometry" />
        </mxCell>
        <mxCell id="jmSIG3X0HEFknxVYifZG-106" value="" style="endArrow=classic;startArrow=classic;html=1;rounded=0;" parent="1" edge="1">
          <mxGeometry x="0.0102" width="50" height="50" relative="1" as="geometry">
            <mxPoint x="8025" y="866" as="sourcePoint" />
            <mxPoint x="8075" y="816" as="targetPoint" />
            <mxPoint as="offset" />
          </mxGeometry>
        </mxCell>
        <mxCell id="jmSIG3X0HEFknxVYifZG-107" value="" style="image;html=1;image=img/lib/clip_art/general/Earth_globe_128x128.png" parent="1" vertex="1">
          <mxGeometry x="8010" y="490" width="80" height="80" as="geometry" />
        </mxCell>
        <mxCell id="jmSIG3X0HEFknxVYifZG-108" value="&lt;font style=&quot;font-size: 72px;&quot;&gt;OLD&lt;/font&gt;" style="text;html=1;align=center;verticalAlign=middle;whiteSpace=wrap;rounded=0;" parent="1" vertex="1">
          <mxGeometry x="6808" y="400" width="60" height="30" as="geometry" />
        </mxCell>
        <mxCell id="jmSIG3X0HEFknxVYifZG-109" value="" style="rounded=0;whiteSpace=wrap;html=1;fillColor=#3399FF;opacity=50;dashed=1;dashPattern=8 8;fontColor=#ffffff;strokeColor=#314354;" parent="1" vertex="1">
          <mxGeometry x="8075" y="1440" width="580" height="440" as="geometry" />
        </mxCell>
        <mxCell id="jmSIG3X0HEFknxVYifZG-113" value="" style="image;html=1;image=img/lib/clip_art/networking/Router_128x128.png" parent="1" vertex="1">
          <mxGeometry x="8270" y="1445" width="80" height="80" as="geometry" />
        </mxCell>
        <mxCell id="jmSIG3X0HEFknxVYifZG-114" value="&lt;b&gt;Client D (Red Hat 8)&lt;/b&gt;&lt;div&gt;OS: (&lt;span style=&quot;background-color: transparent; color: light-dark(rgb(0, 0, 0), rgb(255, 255, 255));&quot;&gt;Windows&lt;/span&gt;&lt;span style=&quot;background-color: transparent; color: light-dark(rgb(0, 0, 0), rgb(255, 255, 255));&quot;&gt;&amp;nbsp;OS)&amp;nbsp;&lt;/span&gt;&lt;/div&gt;&lt;div&gt;&lt;div&gt;IP: [***]&lt;span style=&quot;text-align: left; background-color: transparent; color: light-dark(rgb(0, 0, 0), rgb(255, 255, 255));&quot;&gt;.&lt;/span&gt;&lt;span style=&quot;background-color: transparent; color: light-dark(rgb(0, 0, 0), rgb(255, 255, 255));&quot;&gt;[***]&lt;/span&gt;&lt;span style=&quot;background-color: transparent; color: light-dark(rgb(0, 0, 0), rgb(255, 255, 255)); text-align: left;&quot;&gt;.&lt;/span&gt;&lt;span style=&quot;background-color: transparent; color: light-dark(rgb(0, 0, 0), rgb(255, 255, 255));&quot;&gt;[**]&lt;/span&gt;&lt;span style=&quot;background-color: transparent; color: light-dark(rgb(0, 0, 0), rgb(255, 255, 255)); text-align: left;&quot;&gt;.&lt;/span&gt;&lt;span style=&quot;background-color: transparent; color: light-dark(rgb(0, 0, 0), rgb(255, 255, 255));&quot;&gt;[***]&lt;/span&gt;&lt;/div&gt;&lt;div&gt;&lt;font style=&quot;color: rgb(0, 0, 0);&quot;&gt;Subnet&lt;/font&gt;:&amp;nbsp;&lt;span style=&quot;background-color: transparent; color: light-dark(rgb(0, 0, 0), rgb(255, 255, 255));&quot;&gt;[***]&lt;/span&gt;&lt;span style=&quot;background-color: transparent; color: light-dark(rgb(0, 0, 0), rgb(255, 255, 255));&quot;&gt;.&lt;/span&gt;&lt;span style=&quot;background-color: transparent; color: light-dark(rgb(0, 0, 0), rgb(255, 255, 255));&quot;&gt;[***]&lt;/span&gt;&lt;span style=&quot;background-color: transparent; color: light-dark(rgb(0, 0, 0), rgb(255, 255, 255));&quot;&gt;.&lt;/span&gt;&lt;span style=&quot;background-color: transparent; color: light-dark(rgb(0, 0, 0), rgb(255, 255, 255));&quot;&gt;[***]&lt;/span&gt;&lt;span style=&quot;background-color: transparent; color: light-dark(rgb(0, 0, 0), rgb(255, 255, 255));&quot;&gt;.&lt;/span&gt;&lt;span style=&quot;background-color: transparent; color: light-dark(rgb(0, 0, 0), rgb(255, 255, 255));&quot;&gt;[*]&lt;/span&gt;&lt;/div&gt;&lt;div&gt;&lt;font style=&quot;color: rgb(0, 0, 0);&quot;&gt;Gateway&lt;/font&gt;: [***].&lt;span style=&quot;background-color: transparent; color: light-dark(rgb(0, 0, 0), rgb(255, 255, 255));&quot;&gt;[***]&lt;/span&gt;&lt;span style=&quot;background-color: transparent; color: light-dark(rgb(0, 0, 0), rgb(255, 255, 255));&quot;&gt;.&lt;/span&gt;&lt;span style=&quot;background-color: transparent; color: light-dark(rgb(0, 0, 0), rgb(255, 255, 255));&quot;&gt;[*]&lt;/span&gt;&lt;span style=&quot;background-color: transparent; color: light-dark(rgb(0, 0, 0), rgb(255, 255, 255));&quot;&gt;.&lt;/span&gt;&lt;span style=&quot;background-color: transparent; color: light-dark(rgb(0, 0, 0), rgb(255, 255, 255));&quot;&gt;[*]&lt;/span&gt;&lt;/div&gt;&lt;div&gt;&lt;font style=&quot;color: rgb(0, 0, 0);&quot;&gt;DNS&lt;/font&gt;: 8.8.8.8&lt;/div&gt;&lt;/div&gt;" style="rounded=0;whiteSpace=wrap;html=1;" parent="1" vertex="1">
          <mxGeometry x="8500" y="1680" width="170" height="101" as="geometry" />
        </mxCell>
        <mxCell id="jmSIG3X0HEFknxVYifZG-115" value="&lt;b&gt;Client C (Ubuntu 22.04)&lt;/b&gt;&lt;div&gt;OS: (&lt;span style=&quot;background-color: transparent; color: light-dark(rgb(0, 0, 0), rgb(255, 255, 255));&quot;&gt;Windows&lt;/span&gt;&lt;span style=&quot;background-color: transparent; color: light-dark(rgb(0, 0, 0), rgb(255, 255, 255));&quot;&gt;&amp;nbsp;OS)&amp;nbsp;&lt;/span&gt;&lt;/div&gt;&lt;div&gt;&lt;div&gt;IP: [***]&lt;span style=&quot;text-align: left; background-color: transparent; color: light-dark(rgb(0, 0, 0), rgb(255, 255, 255));&quot;&gt;.&lt;/span&gt;&lt;span style=&quot;background-color: transparent; color: light-dark(rgb(0, 0, 0), rgb(255, 255, 255));&quot;&gt;[***]&lt;/span&gt;&lt;span style=&quot;background-color: transparent; color: light-dark(rgb(0, 0, 0), rgb(255, 255, 255)); text-align: left;&quot;&gt;.&lt;/span&gt;&lt;span style=&quot;background-color: transparent; color: light-dark(rgb(0, 0, 0), rgb(255, 255, 255));&quot;&gt;[**]&lt;/span&gt;&lt;span style=&quot;background-color: transparent; color: light-dark(rgb(0, 0, 0), rgb(255, 255, 255)); text-align: left;&quot;&gt;.&lt;/span&gt;&lt;span style=&quot;background-color: transparent; color: light-dark(rgb(0, 0, 0), rgb(255, 255, 255));&quot;&gt;[***]&lt;/span&gt;&lt;/div&gt;&lt;div&gt;&lt;font style=&quot;color: rgb(0, 0, 0);&quot;&gt;Subnet&lt;/font&gt;:&amp;nbsp;&lt;span style=&quot;background-color: transparent; color: light-dark(rgb(0, 0, 0), rgb(255, 255, 255));&quot;&gt;[***]&lt;/span&gt;&lt;span style=&quot;background-color: transparent; color: light-dark(rgb(0, 0, 0), rgb(255, 255, 255));&quot;&gt;.&lt;/span&gt;&lt;span style=&quot;background-color: transparent; color: light-dark(rgb(0, 0, 0), rgb(255, 255, 255));&quot;&gt;[***]&lt;/span&gt;&lt;span style=&quot;background-color: transparent; color: light-dark(rgb(0, 0, 0), rgb(255, 255, 255));&quot;&gt;.&lt;/span&gt;&lt;span style=&quot;background-color: transparent; color: light-dark(rgb(0, 0, 0), rgb(255, 255, 255));&quot;&gt;[***]&lt;/span&gt;&lt;span style=&quot;background-color: transparent; color: light-dark(rgb(0, 0, 0), rgb(255, 255, 255));&quot;&gt;.&lt;/span&gt;&lt;span style=&quot;background-color: transparent; color: light-dark(rgb(0, 0, 0), rgb(255, 255, 255));&quot;&gt;[*]&lt;/span&gt;&lt;/div&gt;&lt;div&gt;&lt;font style=&quot;color: rgb(0, 0, 0);&quot;&gt;Gateway&lt;/font&gt;: [***].&lt;span style=&quot;background-color: transparent; color: light-dark(rgb(0, 0, 0), rgb(255, 255, 255));&quot;&gt;[***]&lt;/span&gt;&lt;span style=&quot;background-color: transparent; color: light-dark(rgb(0, 0, 0), rgb(255, 255, 255));&quot;&gt;.&lt;/span&gt;&lt;span style=&quot;background-color: transparent; color: light-dark(rgb(0, 0, 0), rgb(255, 255, 255));&quot;&gt;[*]&lt;/span&gt;&lt;span style=&quot;background-color: transparent; color: light-dark(rgb(0, 0, 0), rgb(255, 255, 255));&quot;&gt;.&lt;/span&gt;&lt;span style=&quot;background-color: transparent; color: light-dark(rgb(0, 0, 0), rgb(255, 255, 255));&quot;&gt;[*]&lt;/span&gt;&lt;/div&gt;&lt;div&gt;&lt;font style=&quot;color: rgb(0, 0, 0);&quot;&gt;DNS&lt;/font&gt;: 8.8.8.8&lt;/div&gt;&lt;/div&gt;" style="rounded=0;whiteSpace=wrap;html=1;" parent="1" vertex="1">
          <mxGeometry x="8080" y="1670" width="170" height="101" as="geometry" />
        </mxCell>
        <mxCell id="jmSIG3X0HEFknxVYifZG-116" value="" style="image;html=1;image=img/lib/clip_art/computers/Monitor_Tower_128x128.png" parent="1" vertex="1">
          <mxGeometry x="8150" y="1781" width="80" height="80" as="geometry" />
        </mxCell>
        <mxCell id="jmSIG3X0HEFknxVYifZG-117" value="" style="image;html=1;image=img/lib/clip_art/computers/Monitor_Tower_128x128.png" parent="1" vertex="1">
          <mxGeometry x="8420" y="1760" width="80" height="80" as="geometry" />
        </mxCell>
        <mxCell id="jmSIG3X0HEFknxVYifZG-118" value="Client C 1d:3c:2f:06:36:e7 Ubuntu 22.04&#xa;Client D ab:30:03:71:63:41 Red Hat 8" style="text;whiteSpace=wrap;html=1;" parent="1" vertex="1">
          <mxGeometry x="8770" y="1790" width="250" height="50" as="geometry" />
        </mxCell>
        <mxCell id="jmSIG3X0HEFknxVYifZG-120" value="&#xa;Client A 2e:d4:72:e6:25:c8 Windows 10&#xa;Client B a0:a1:24:4c:d8:e1 Windows 10&#xa;&#xa;&#xa;" style="text;whiteSpace=wrap;html=1;" parent="1" vertex="1">
          <mxGeometry x="7220" y="1720" width="110" height="40" as="geometry" />
        </mxCell>
        <mxCell id="jmSIG3X0HEFknxVYifZG-121" value="" style="shape=image;html=1;verticalAlign=top;verticalLabelPosition=bottom;labelBackgroundColor=#ffffff;imageAspect=0;aspect=fixed;image=https://icons.diagrams.net/icon-cache1/Security_Double_Color_Red_and_black_vol_2-2413/fire__wall__firewall__security-520.svg" parent="1" vertex="1">
          <mxGeometry x="8298" y="1580" width="52" height="52" as="geometry" />
        </mxCell>
        <mxCell id="jmSIG3X0HEFknxVYifZG-122" value="" style="endArrow=classic;startArrow=classic;html=1;rounded=0;" parent="1" edge="1">
          <mxGeometry x="0.0102" width="50" height="50" relative="1" as="geometry">
            <mxPoint x="8285" y="1568" as="sourcePoint" />
            <mxPoint x="8335" y="1518" as="targetPoint" />
            <mxPoint as="offset" />
          </mxGeometry>
        </mxCell>
        <mxCell id="jmSIG3X0HEFknxVYifZG-123" value="" style="endArrow=classic;html=1;rounded=0;" parent="1" edge="1">
          <mxGeometry width="50" height="50" relative="1" as="geometry">
            <mxPoint x="8285" y="1722" as="sourcePoint" />
            <mxPoint x="8335" y="1672" as="targetPoint" />
          </mxGeometry>
        </mxCell>
        <mxCell id="jmSIG3X0HEFknxVYifZG-124" value="" style="endArrow=classic;html=1;rounded=0;" parent="1" edge="1">
          <mxGeometry width="50" height="50" relative="1" as="geometry">
            <mxPoint x="8430" y="1730" as="sourcePoint" />
            <mxPoint x="8480" y="1680" as="targetPoint" />
          </mxGeometry>
        </mxCell>
        <mxCell id="jmSIG3X0HEFknxVYifZG-130" value="" style="image;html=1;image=img/lib/clip_art/networking/Router_128x128.png" parent="1" vertex="1">
          <mxGeometry x="8276" y="1346" width="80" height="80" as="geometry" />
        </mxCell>
        <mxCell id="jmSIG3X0HEFknxVYifZG-131" value="" style="image;html=1;image=img/lib/clip_art/networking/Router_128x128.png" parent="1" vertex="1">
          <mxGeometry x="8292" y="1191" width="80" height="80" as="geometry" />
        </mxCell>
        <mxCell id="jmSIG3X0HEFknxVYifZG-132" value="" style="endArrow=classic;startArrow=classic;html=1;rounded=0;" parent="1" edge="1">
          <mxGeometry x="0.0102" width="50" height="50" relative="1" as="geometry">
            <mxPoint x="8292" y="1311" as="sourcePoint" />
            <mxPoint x="8342" y="1261" as="targetPoint" />
            <mxPoint as="offset" />
          </mxGeometry>
        </mxCell>
        <mxCell id="jmSIG3X0HEFknxVYifZG-133" value="" style="shape=image;html=1;verticalAlign=top;verticalLabelPosition=bottom;labelBackgroundColor=#ffffff;imageAspect=0;aspect=fixed;image=https://icons.diagrams.net/icon-cache1/Security_Double_Color_Red_and_black_vol_2-2413/fire__wall__firewall__security-520.svg" parent="1" vertex="1">
          <mxGeometry x="8302" y="1296" width="52" height="52" as="geometry" />
        </mxCell>
        <mxCell id="jmSIG3X0HEFknxVYifZG-134" value="" style="shape=image;html=1;verticalAlign=top;verticalLabelPosition=bottom;labelBackgroundColor=#ffffff;imageAspect=0;aspect=fixed;image=https://icons.diagrams.net/icon-cache1/Security_Double_Color_Red_and_black_vol_2-2413/fire__wall__firewall__security-520.svg" parent="1" vertex="1">
          <mxGeometry x="8302" y="1090" width="52" height="52" as="geometry" />
        </mxCell>
        <mxCell id="jmSIG3X0HEFknxVYifZG-135" value="Router B WAN 73:12:5c:29:f2:e2 172.16.0.6 OPNsense 24.7.12&lt;br&gt;Router B LAN 23:eb:90:03:ef:b7 192.168.6.1/24&lt;div&gt;&lt;br/&gt;&lt;/div&gt;" style="text;whiteSpace=wrap;html=1;" parent="1" vertex="1">
          <mxGeometry x="8830" y="1200" width="370" height="70" as="geometry" />
        </mxCell>
        <mxCell id="jmSIG3X0HEFknxVYifZG-136" value="" style="endArrow=classic;startArrow=classic;html=1;rounded=0;" parent="1" edge="1">
          <mxGeometry x="0.0102" width="50" height="50" relative="1" as="geometry">
            <mxPoint x="8320" y="1060" as="sourcePoint" />
            <mxPoint x="8370" y="1010" as="targetPoint" />
            <mxPoint as="offset" />
          </mxGeometry>
        </mxCell>
        <mxCell id="jmSIG3X0HEFknxVYifZG-149" value="" style="rounded=1;whiteSpace=wrap;html=1;" parent="1" vertex="1">
          <mxGeometry x="7415" y="355" width="290" height="300" as="geometry" />
        </mxCell>
        <mxCell id="jmSIG3X0HEFknxVYifZG-150" value="&lt;font style=&quot;font-size: 24px;&quot;&gt;&lt;b&gt;Key&lt;/b&gt;&lt;/font&gt;&amp;nbsp;" style="text;html=1;align=center;verticalAlign=middle;whiteSpace=wrap;rounded=0;" parent="1" vertex="1">
          <mxGeometry x="7515" y="355" width="60" height="30" as="geometry" />
        </mxCell>
        <mxCell id="jmSIG3X0HEFknxVYifZG-151" value="" style="endArrow=none;html=1;rounded=0;exitX=0.004;exitY=0.191;exitDx=0;exitDy=0;exitPerimeter=0;entryX=0.994;entryY=0.178;entryDx=0;entryDy=0;entryPerimeter=0;" parent="1" source="jmSIG3X0HEFknxVYifZG-149" target="jmSIG3X0HEFknxVYifZG-149" edge="1">
          <mxGeometry width="50" height="50" relative="1" as="geometry">
            <mxPoint x="7835" y="590" as="sourcePoint" />
            <mxPoint x="7885" y="540" as="targetPoint" />
          </mxGeometry>
        </mxCell>
        <mxCell id="jmSIG3X0HEFknxVYifZG-152" value="" style="shape=image;html=1;verticalAlign=top;verticalLabelPosition=bottom;labelBackgroundColor=#ffffff;imageAspect=0;aspect=fixed;image=https://icons.diagrams.net/icon-cache1/Security_Double_Color_Red_and_black_vol_2-2413/fire__wall__firewall__security-520.svg" parent="1" vertex="1">
          <mxGeometry x="7435" y="400" width="52" height="52" as="geometry" />
        </mxCell>
        <mxCell id="jmSIG3X0HEFknxVYifZG-153" value="" style="rounded=0;whiteSpace=wrap;html=1;shadow=0;dashed=1;dashPattern=8 8;fillColor=#99FF33;fontColor=#ffffff;strokeColor=#314354;opacity=50;" parent="1" vertex="1">
          <mxGeometry x="7426" y="480" width="70" height="50" as="geometry" />
        </mxCell>
        <mxCell id="jmSIG3X0HEFknxVYifZG-154" value="&amp;nbsp;Network Firewall" style="text;html=1;align=center;verticalAlign=middle;whiteSpace=wrap;rounded=0;strokeColor=default;" parent="1" vertex="1">
          <mxGeometry x="7535" y="411" width="150" height="30" as="geometry" />
        </mxCell>
        <mxCell id="jmSIG3X0HEFknxVYifZG-155" value="&lt;b&gt;&amp;nbsp;Subnet 1&lt;/b&gt;" style="text;html=1;align=center;verticalAlign=middle;whiteSpace=wrap;rounded=0;strokeColor=default;strokeWidth=1;" parent="1" vertex="1">
          <mxGeometry x="7545" y="490" width="150" height="30" as="geometry" />
        </mxCell>
        <mxCell id="jmSIG3X0HEFknxVYifZG-156" value="" style="endArrow=classic;html=1;rounded=0;" parent="1" edge="1">
          <mxGeometry width="50" height="50" relative="1" as="geometry">
            <mxPoint x="7502" y="504.54999999999995" as="sourcePoint" />
            <mxPoint x="7542" y="504.54999999999995" as="targetPoint" />
          </mxGeometry>
        </mxCell>
        <mxCell id="jmSIG3X0HEFknxVYifZG-157" value="" style="endArrow=classic;html=1;rounded=0;" parent="1" edge="1">
          <mxGeometry width="50" height="50" relative="1" as="geometry">
            <mxPoint x="7490" y="425.54999999999995" as="sourcePoint" />
            <mxPoint x="7530" y="425.54999999999995" as="targetPoint" />
          </mxGeometry>
        </mxCell>
        <mxCell id="jmSIG3X0HEFknxVYifZG-158" value="" style="rounded=0;whiteSpace=wrap;html=1;shadow=0;dashed=1;dashPattern=8 8;fillColor=#3399FF;fontColor=#ffffff;strokeColor=#B20000;opacity=50;" parent="1" vertex="1">
          <mxGeometry x="7425.5" y="570" width="70" height="50" as="geometry" />
        </mxCell>
        <mxCell id="jmSIG3X0HEFknxVYifZG-159" value="&lt;b&gt;&amp;nbsp;Subnet 1&lt;/b&gt;" style="text;html=1;align=center;verticalAlign=middle;whiteSpace=wrap;rounded=0;strokeColor=default;strokeWidth=1;" parent="1" vertex="1">
          <mxGeometry x="7544.5" y="580" width="150" height="30" as="geometry" />
        </mxCell>
        <mxCell id="jmSIG3X0HEFknxVYifZG-160" value="" style="endArrow=classic;html=1;rounded=0;" parent="1" edge="1">
          <mxGeometry width="50" height="50" relative="1" as="geometry">
            <mxPoint x="7501.5" y="594.55" as="sourcePoint" />
            <mxPoint x="7541.5" y="594.55" as="targetPoint" />
          </mxGeometry>
        </mxCell>
        <mxCell id="jmSIG3X0HEFknxVYifZG-162" value="" style="shape=link;html=1;rounded=0;width=883.3333333333333;" parent="1" edge="1">
          <mxGeometry width="100" relative="1" as="geometry">
            <mxPoint x="7190" y="87.5" as="sourcePoint" />
            <mxPoint x="7290" y="87.5" as="targetPoint" />
          </mxGeometry>
        </mxCell>
        <mxCell id="jmSIG3X0HEFknxVYifZG-163" value="" style="endArrow=classic;startArrow=classic;html=1;rounded=0;strokeWidth=18;" parent="1" edge="1">
          <mxGeometry width="50" height="50" relative="1" as="geometry">
            <mxPoint x="7110" y="1160" as="sourcePoint" />
            <mxPoint x="7120" as="targetPoint" />
          </mxGeometry>
        </mxCell>
        <mxCell id="jmSIG3X0HEFknxVYifZG-164" value="&lt;b&gt;&lt;span style=&quot;text-align: left;&quot;&gt;Layer 2 Switch A&lt;/span&gt;&amp;nbsp;&lt;br&gt;&lt;/b&gt;&lt;div&gt;&lt;font style=&quot;background-color: transparent;&quot;&gt;&lt;span style=&quot;color: rgba(0, 0, 0, 0); font-family: monospace; font-size: 0px; text-align: start; text-wrap-mode: nowrap; background-color: transparent;&quot;&gt;[%3CmxGraphModel%3E%3Croot%3E%3CmxCell%20id%3D%220%22%2F%3E%3CmxCell%20id%3D%221%22%20parent%3D%220%22%2F%3E%3CmxCell%20id%3D%222%22%20value%3D%22%22%20style%3D%22endArrow%3Dclassic%3BstartArrow%3Dclassic%3Bhtml%3D1%3Brounded%3D0%3B%22%20edge%3D%221%22%20parent%3D%221%22%3E%3CmxGeometry%20x%3D%220.0102%22%20width%3D%2250%22%20height%3D%2250%22%20relative%3D%221%22%20as%3D%22geometry%22%3E%3CmxPoint%20x%3D%227760%22%20y%3D%221080%22%20as%3D%22sourcePoint%22%2F%3E%3CmxPoint%20x%3D%227810%22%20y%3D%221030%22%20as%3D%22targetPoint%22%2F%3E%3CmxPoint%20as%3D%22offset%22%2F%3E%3C%2FmxGeometry%3E%3C%2FmxCell%3E%3C%2Froot%3E%3C%2FmxGraphModel%[][]&lt;/span&gt;&lt;b style=&quot;&quot;&gt;&lt;font style=&quot;color: rgb(0, 0, 0);&quot;&gt;&amp;nbsp;[]&amp;nbsp;&lt;/font&gt;&lt;/b&gt;&lt;/font&gt;&lt;font style=&quot;background-color: transparent; color: light-dark(rgb(0, 0, 0), rgb(255, 255, 255));&quot;&gt;&lt;span style=&quot;color: rgba(0, 0, 0, 0); font-family: monospace; font-size: 0px; text-align: start; text-wrap-mode: nowrap; background-color: transparent;&quot;&gt;%3CmxGraphModel%3E%3Croot%3E%3CmxCell%20id%3D%220%22%2F%3E%3CmxCell%20id%3D%221%22%20parent%3D%220%22%2F%3E%3CmxCell%20id%3D%222%22%20value%3D%22%22%20style%3D%22endArrow%3Dclassic%3BstartArrow%3Dclassic%3Bhtml%3D1%3Brounded%3D0%3B%22%20edge%3D%221%22%20parent%3D%221%22%3E%3CmxGeometry%20x%3D%220.0102%22%20width%3D%2250%22%20height%3D%2250%22%20relative%3D%221%22%20as%3D%22geometry%22%3E%3CmxPoint%20x%3D%227760%22%20y%3D%221080%22%20as%3D%22sourcePoint%22%2F%3E%3CmxPoint%20x%3D%227810%22%20y%3D%221030%22%20as%3D%22targetPoint%22%2F%3E%3CmxPoint%20as%3D%22offset%22%2F%3E%3C%2FmxGeometry%3E%3C%2FmxCell%3E%3C%2Froot%3E%3C%2FmxGraphModel%&lt;/span&gt;&lt;b&gt;&lt;font style=&quot;color: rgb(0, 0, 0);&quot;&gt;IP&lt;/font&gt;&lt;/b&gt;&lt;/font&gt;&lt;span style=&quot;background-color: transparent; color: light-dark(rgb(0, 0, 0), rgb(255, 255, 255));&quot;&gt;:&lt;/span&gt;&lt;span style=&quot;background-color: transparent; color: light-dark(rgb(0, 0, 0), rgb(255, 255, 255));&quot;&gt;&amp;nbsp;&lt;/span&gt;&lt;font style=&quot;background-color: transparent; color: light-dark(rgb(0, 0, 0), rgb(255, 255, 255));&quot;&gt;&lt;span style=&quot;color: rgba(0, 0, 0, 0); font-family: monospace; font-size: 0px; text-align: start; text-wrap-mode: nowrap; background-color: transparent;&quot;&gt;%3CmxGraphModel%3E%3Croot%3E%3CmxCell%20id%3D%220%22%2F%3E%3CmxCell%20id%3D%221%22%20parent%3D%220%22%2F%3E%3CmxCell%20id%3D%222%22%20value%3D%22%22%20style%3D%22endArrow%3Dclassic%3BstartArrow%3Dclassic%3Bhtml%3D1%3Brounded%3D0%3B%22%20edge%3D%221%22%20parent%3D%221%22%3E%3CmxGeometry%20x%3D%220.0102%22%20width%3D%2250%22%20height%3D%2250%22%20relative%3D%221%22%20as%3D%22geometry%22%3E%3CmxPoint%20x%3D%227760%22%20y%3D%221080%22%20as%3D%22sourcePoint%22%2F%3E%3CmxPoint%20x%3D%227810%22%20y%3D%221030%22%20as%3D%22targetPoint%22%2F%3E%3CmxPoint%20as%3D%22offset%22%2F%3E%3C%2FmxGeometry%3E%3C%2FmxCell%3E%3C%2Froot%3E%3C%2FmxGraphModel%[]&lt;/span&gt;&lt;/font&gt;&lt;span style=&quot;background-color: transparent; color: light-dark(rgb(0, 0, 0), rgb(255, 255, 255));&quot;&gt;&amp;nbsp;[###].[###],[#],[#]&lt;/span&gt;&lt;/div&gt;" style="rounded=0;whiteSpace=wrap;html=1;" parent="1" vertex="1">
          <mxGeometry x="7850" y="1475" width="120" height="50" as="geometry" />
        </mxCell>
        <mxCell id="YeXkgbG_geoZ1zjIWWEg-1" value="" style="image;html=1;image=img/lib/clip_art/networking/Router_128x128.png" vertex="1" parent="1">
          <mxGeometry x="7995" y="911" width="80" height="80" as="geometry" />
        </mxCell>
        <mxCell id="YeXkgbG_geoZ1zjIWWEg-2" value="" style="image;html=1;image=img/lib/clip_art/networking/Router_128x128.png" vertex="1" parent="1">
          <mxGeometry x="8020" y="736" width="80" height="80" as="geometry" />
        </mxCell>
        <mxCell id="YeXkgbG_geoZ1zjIWWEg-4" value="" style="shape=image;html=1;verticalAlign=top;verticalLabelPosition=bottom;labelBackgroundColor=#ffffff;imageAspect=0;aspect=fixed;image=https://icons.diagrams.net/icon-cache1/Security_Double_Color_Red_and_black_vol_2-2413/fire__wall__firewall__security-520.svg" vertex="1" parent="1">
          <mxGeometry x="8020" y="859" width="52" height="52" as="geometry" />
        </mxCell>
        <mxCell id="YeXkgbG_geoZ1zjIWWEg-5" value="" style="endArrow=classic;startArrow=classic;html=1;rounded=0;" edge="1" parent="1">
          <mxGeometry x="0.0102" width="50" height="50" relative="1" as="geometry">
            <mxPoint x="7760" y="1080" as="sourcePoint" />
            <mxPoint x="7810" y="1030" as="targetPoint" />
            <mxPoint as="offset" />
          </mxGeometry>
        </mxCell>
        <mxCell id="YeXkgbG_geoZ1zjIWWEg-7" value="&lt;b&gt;Gateway Router LAN&lt;br&gt;&lt;/b&gt;&lt;div&gt;&lt;font style=&quot;background-color: transparent;&quot;&gt;&lt;span style=&quot;color: rgba(0, 0, 0, 0); font-family: monospace; font-size: 0px; text-align: start; text-wrap-mode: nowrap; background-color: transparent;&quot;&gt;%3CmxGraphModel%3E%3Croot%3E%3CmxCell%20id%3D%220%22%2F%3E%3CmxCell%20id%3D%221%22%20parent%3D%220%22%2F%3E%3CmxCell%20id%3D%222%22%20value%3D%22%22%20style%3D%22endArrow%3Dclassic%3BstartArrow%3Dclassic%3Bhtml%3D1%3Brounded%3D0%3B%22%20edge%3D%221%22%20parent%3D%221%22%3E%3CmxGeometry%20x%3D%220.0102%22%20width%3D%2250%22%20height%3D%2250%22%20relative%3D%221%22%20as%3D%22geometry%22%3E%3CmxPoint%20x%3D%227760%22%20y%3D%221080%22%20as%3D%22sourcePoint%22%2F%3E%3CmxPoint%20x%3D%227810%22%20y%3D%221030%22%20as%3D%22targetPoint%22%2F%3E%3CmxPoint%20as%3D%22offset%22%2F%3E%3C%2FmxGeometry%3E%3C%2FmxCell%3E%3C%2Froot%3E%3C%2FmxGraphModel%[]&lt;/span&gt;&lt;b style=&quot;&quot;&gt;&lt;font style=&quot;color: rgb(0, 0, 0);&quot;&gt;&amp;nbsp;IP&lt;/font&gt;&lt;/b&gt;&lt;/font&gt;&lt;span style=&quot;background-color: transparent;&quot;&gt;&lt;font style=&quot;color: rgb(0, 0, 0);&quot;&gt;:&lt;/font&gt;&lt;/span&gt;&lt;span style=&quot;background-color: transparent; color: light-dark(rgb(0, 0, 0), rgb(255, 255, 255));&quot;&gt;&amp;nbsp;&lt;/span&gt;&lt;span style=&quot;background-color: transparent; color: light-dark(rgb(0, 0, 0), rgb(255, 255, 255));&quot;&gt;&amp;nbsp;[###].[###],[#],[#]&lt;/span&gt;&lt;/div&gt;" style="rounded=0;whiteSpace=wrap;html=1;" vertex="1" parent="1">
          <mxGeometry x="7784" y="881" width="120" height="50" as="geometry" />
        </mxCell>
        <mxCell id="YeXkgbG_geoZ1zjIWWEg-8" value="&lt;b&gt;Gateway Router WAN []&amp;nbsp;&lt;br&gt;&lt;/b&gt;&lt;div&gt;&lt;font style=&quot;background-color: transparent;&quot;&gt;&lt;span style=&quot;color: rgba(0, 0, 0, 0); font-family: monospace; font-size: 0px; text-align: start; text-wrap-mode: nowrap; background-color: transparent;&quot;&gt;%3CmxGraphModel%3E%3Croot%3E%3CmxCell%20id%3D%220%22%2F%3E%3CmxCell%20id%3D%221%22%20parent%3D%220%22%2F%3E%3CmxCell%20id%3D%222%22%20value%3D%22%22%20style%3D%22endArrow%3Dclassic%3BstartArrow%3Dclassic%3Bhtml%3D1%3Brounded%3D0%3B%22%20edge%3D%221%22%20parent%3D%221%22%3E%3CmxGeometry%20x%3D%220.0102%22%20width%3D%2250%22%20height%3D%2250%22%20relative%3D%221%22%20as%3D%22geometry%22%3E%3CmxPoint%20x%3D%227760%22%20y%3D%221080%22%20as%3D%22sourcePoint%22%2F%3E%3CmxPoint%20x%3D%227810%22%20y%3D%221030%22%20as%3D%22targetPoint%22%2F%3E%3CmxPoint%20as%3D%22offset%22%2F%3E%3C%2FmxGeometry%3E%3C%2FmxCell%3E%3C%2Froot%3E%3C%2FmxGraphModel%[]&lt;/span&gt;&lt;b style=&quot;&quot;&gt;&lt;font style=&quot;color: rgb(0, 0, 0);&quot;&gt;&amp;nbsp;IP&lt;/font&gt;&lt;/b&gt;&lt;/font&gt;&lt;span style=&quot;background-color: transparent;&quot;&gt;&lt;font style=&quot;color: rgb(0, 0, 0);&quot;&gt;:&lt;/font&gt;&lt;/span&gt;&lt;span style=&quot;background-color: transparent; color: light-dark(rgb(0, 0, 0), rgb(255, 255, 255));&quot;&gt;&amp;nbsp;&lt;/span&gt;&lt;span style=&quot;background-color: transparent; color: light-dark(rgb(0, 0, 0), rgb(255, 255, 255));&quot;&gt;&amp;nbsp;[###].[###],[#],[#]&lt;/span&gt;&lt;/div&gt;" style="rounded=0;whiteSpace=wrap;html=1;" vertex="1" parent="1">
          <mxGeometry x="7756" y="720" width="120" height="50" as="geometry" />
        </mxCell>
        <mxCell id="YeXkgbG_geoZ1zjIWWEg-9" value="" style="endArrow=classic;startArrow=classic;html=1;rounded=0;" edge="1" parent="1">
          <mxGeometry x="0.0102" width="50" height="50" relative="1" as="geometry">
            <mxPoint x="8030" y="645" as="sourcePoint" />
            <mxPoint x="8080" y="595" as="targetPoint" />
            <mxPoint as="offset" />
          </mxGeometry>
        </mxCell>
        <mxCell id="YeXkgbG_geoZ1zjIWWEg-10" value="" style="shape=image;html=1;verticalAlign=top;verticalLabelPosition=bottom;labelBackgroundColor=#ffffff;imageAspect=0;aspect=fixed;image=https://icons.diagrams.net/icon-cache1/Security_Double_Color_Red_and_black_vol_2-2413/fire__wall__firewall__security-520.svg" vertex="1" parent="1">
          <mxGeometry x="8025" y="638" width="52" height="52" as="geometry" />
        </mxCell>
        <mxCell id="YeXkgbG_geoZ1zjIWWEg-11" value="&lt;b&gt;Router A LAN&amp;nbsp;&lt;/b&gt;&lt;b style=&quot;background-color: transparent; color: light-dark(rgb(0, 0, 0), rgb(255, 255, 255));&quot;&gt;[]&amp;nbsp;&lt;/b&gt;&lt;div&gt;&lt;div&gt;&lt;font style=&quot;background-color: transparent;&quot;&gt;&lt;span style=&quot;color: rgba(0, 0, 0, 0); font-family: monospace; font-size: 0px; text-align: start; text-wrap-mode: nowrap; background-color: transparent;&quot;&gt;%3CmxGraphModel%3E%3Croot%3E%3CmxCell%20id%3D%220%22%2F%3E%3CmxCell%20id%3D%221%22%20parent%3D%220%22%2F%3E%3CmxCell%20id%3D%222%22%20value%3D%22%22%20style%3D%22endArrow%3Dclassic%3BstartArrow%3Dclassic%3Bhtml%3D1%3Brounded%3D0%3B%22%20edge%3D%221%22%20parent%3D%221%22%3E%3CmxGeometry%20x%3D%220.0102%22%20width%3D%2250%22%20height%3D%2250%22%20relative%3D%221%22%20as%3D%22geometry%22%3E%3CmxPoint%20x%3D%227760%22%20y%3D%221080%22%20as%3D%22sourcePoint%22%2F%3E%3CmxPoint%20x%3D%227810%22%20y%3D%221030%22%20as%3D%22targetPoint%22%2F%3E%3CmxPoint%20as%3D%22offset%22%2F%3E%3C%2FmxGeometry%3E%3C%2FmxCell%3E%3C%2Froot%3E%3C%2FmxGraphModel%&lt;/span&gt;&lt;b style=&quot;&quot;&gt;&lt;font style=&quot;color: rgb(0, 0, 0);&quot;&gt;IP&lt;/font&gt;&lt;/b&gt;&lt;/font&gt;&lt;span style=&quot;background-color: transparent;&quot;&gt;&lt;font style=&quot;color: rgb(0, 0, 0);&quot;&gt;:&lt;/font&gt;&lt;/span&gt;&lt;span style=&quot;background-color: transparent; color: light-dark(rgb(0, 0, 0), rgb(255, 255, 255));&quot;&gt;&amp;nbsp;[###].[###],[#],[#]&lt;/span&gt;&lt;/div&gt;&lt;/div&gt;" style="rounded=0;whiteSpace=wrap;html=1;" vertex="1" parent="1">
          <mxGeometry x="7840" y="1370" width="120" height="50" as="geometry" />
        </mxCell>
        <mxCell id="YeXkgbG_geoZ1zjIWWEg-12" value="&lt;b&gt;Router A WAN []&amp;nbsp;&lt;br&gt;&lt;/b&gt;&lt;div&gt;&lt;font style=&quot;background-color: transparent;&quot;&gt;&lt;span style=&quot;color: rgba(0, 0, 0, 0); font-family: monospace; font-size: 0px; text-align: start; text-wrap-mode: nowrap; background-color: transparent;&quot;&gt;%3CmxGraphModel%3E%3Croot%3E%3CmxCell%20id%3D%220%22%2F%3E%3CmxCell%20id%3D%221%22%20parent%3D%220%22%2F%3E%3CmxCell%20id%3D%222%22%20value%3D%22%22%20style%3D%22endArrow%3Dclassic%3BstartArrow%3Dclassic%3Bhtml%3D1%3Brounded%3D0%3B%22%20edge%3D%221%22%20parent%3D%221%22%3E%3CmxGeometry%20x%3D%220.0102%22%20width%3D%2250%22%20height%3D%2250%22%20relative%3D%221%22%20as%3D%22geometry%22%3E%3CmxPoint%20x%3D%227760%22%20y%3D%221080%22%20as%3D%22sourcePoint%22%2F%3E%3CmxPoint%20x%3D%227810%22%20y%3D%221030%22%20as%3D%22targetPoint%22%2F%3E%3CmxPoint%20as%3D%22offset%22%2F%3E%3C%2FmxGeometry%3E%3C%2FmxCell%3E%3C%2Froot%3E%3C%2FmxGraphModel%&lt;/span&gt;&lt;b style=&quot;&quot;&gt;&lt;font style=&quot;color: rgb(0, 0, 0);&quot;&gt;IP&lt;/font&gt;&lt;/b&gt;&lt;/font&gt;&lt;span style=&quot;background-color: transparent;&quot;&gt;&lt;font style=&quot;color: rgb(0, 0, 0);&quot;&gt;:&lt;/font&gt;&lt;/span&gt;&lt;span style=&quot;background-color: transparent; color: light-dark(rgb(0, 0, 0), rgb(255, 255, 255));&quot;&gt;&amp;nbsp;&lt;/span&gt;&lt;font style=&quot;background-color: transparent; color: light-dark(rgb(0, 0, 0), rgb(255, 255, 255));&quot;&gt;&lt;span style=&quot;color: rgba(0, 0, 0, 0); font-family: monospace; font-size: 0px; text-align: start; text-wrap-mode: nowrap; background-color: transparent;&quot;&gt;%3CmxGraphModel%3E%3Croot%3E%3CmxCell%20id%3D%220%22%2F%3E%3CmxCell%20id%3D%221%22%20parent%3D%220%22%2F%3E%3CmxCell%20id%3D%222%22%20value%3D%22%22%20style%3D%22endArrow%3Dclassic%3BstartArrow%3Dclassic%3Bhtml%3D1%3Brounded%3D0%3B%22%20edge%3D%221%22%20parent%3D%221%22%3E%3CmxGeometry%20x%3D%220.0102%22%20width%3D%2250%22%20height%3D%2250%22%20relative%3D%221%22%20as%3D%22geometry%22%3E%3CmxPoint%20x%3D%227760%22%20y%3D%221080%22%20as%3D%22sourcePoint%22%2F%3E%3CmxPoint%20x%3D%227810%22%20y%3D%221030%22%20as%3D%22targetPoint%22%2F%3E%3CmxPoint%20as%3D%22offset%22%2F%3E%3C%2FmxGeometry%3E%3C%2FmxCell%3E%3C%2Froot%3E%3C%2FmxGraphModel%[]&lt;/span&gt;&lt;b&gt;&lt;font style=&quot;color: rgb(0, 0, 0);&quot;&gt;&amp;nbsp;&lt;/font&gt;&lt;/b&gt;&lt;/font&gt;&lt;span style=&quot;background-color: transparent; color: light-dark(rgb(0, 0, 0), rgb(255, 255, 255));&quot;&gt;&amp;nbsp;[###].[###],[#],[#]&lt;/span&gt;&lt;/div&gt;" style="rounded=0;whiteSpace=wrap;html=1;" vertex="1" parent="1">
          <mxGeometry x="7840" y="1210" width="120" height="50" as="geometry" />
        </mxCell>
        <mxCell id="YeXkgbG_geoZ1zjIWWEg-13" value="" style="shape=image;html=1;verticalAlign=top;verticalLabelPosition=bottom;labelBackgroundColor=#ffffff;imageAspect=0;aspect=fixed;image=https://icons.diagrams.net/icon-cache1/Security_Double_Color_Red_and_black_vol_2-2413/fire__wall__firewall__security-520.svg" vertex="1" parent="1">
          <mxGeometry x="7718" y="1440" width="52" height="52" as="geometry" />
        </mxCell>
        <mxCell id="YeXkgbG_geoZ1zjIWWEg-14" value="" style="endArrow=classic;startArrow=classic;html=1;rounded=0;" edge="1" parent="1">
          <mxGeometry x="0.0102" width="50" height="50" relative="1" as="geometry">
            <mxPoint x="7706" y="1465" as="sourcePoint" />
            <mxPoint x="7756" y="1415" as="targetPoint" />
            <mxPoint as="offset" />
          </mxGeometry>
        </mxCell>
        <mxCell id="YeXkgbG_geoZ1zjIWWEg-15" value="&lt;b&gt;Router B WAN []&amp;nbsp;&lt;br&gt;&lt;/b&gt;&lt;div&gt;&lt;font style=&quot;background-color: transparent;&quot;&gt;&lt;span style=&quot;color: rgba(0, 0, 0, 0); font-family: monospace; font-size: 0px; text-align: start; text-wrap-mode: nowrap; background-color: transparent;&quot;&gt;%3CmxGraphModel%3E%3Croot%3E%3CmxCell%20id%3D%220%22%2F%3E%3CmxCell%20id%3D%221%22%20parent%3D%220%22%2F%3E%3CmxCell%20id%3D%222%22%20value%3D%22%22%20style%3D%22endArrow%3Dclassic%3BstartArrow%3Dclassic%3Bhtml%3D1%3Brounded%3D0%3B%22%20edge%3D%221%22%20parent%3D%221%22%3E%3CmxGeometry%20x%3D%220.0102%22%20width%3D%2250%22%20height%3D%2250%22%20relative%3D%221%22%20as%3D%22geometry%22%3E%3CmxPoint%20x%3D%227760%22%20y%3D%221080%22%20as%3D%22sourcePoint%22%2F%3E%3CmxPoint%20x%3D%227810%22%20y%3D%221030%22%20as%3D%22targetPoint%22%2F%3E%3CmxPoint%20as%3D%22offset%22%2F%3E%3C%2FmxGeometry%3E%3C%2FmxCell%3E%3C%2Froot%3E%3C%2FmxGraphModel%&lt;/span&gt;&lt;b style=&quot;&quot;&gt;&lt;font style=&quot;color: rgb(0, 0, 0);&quot;&gt;IP&lt;/font&gt;&lt;/b&gt;&lt;/font&gt;&lt;span style=&quot;background-color: transparent;&quot;&gt;&lt;font style=&quot;color: rgb(0, 0, 0);&quot;&gt;:&lt;/font&gt;&lt;/span&gt;&lt;span style=&quot;background-color: transparent; color: light-dark(rgb(0, 0, 0), rgb(255, 255, 255));&quot;&gt;&amp;nbsp;&lt;/span&gt;&lt;font style=&quot;background-color: transparent; color: light-dark(rgb(0, 0, 0), rgb(255, 255, 255));&quot;&gt;&lt;span style=&quot;color: rgba(0, 0, 0, 0); font-family: monospace; font-size: 0px; text-align: start; text-wrap-mode: nowrap; background-color: transparent;&quot;&gt;%3CmxGraphModel%3E%3Croot%3E%3CmxCell%20id%3D%220%22%2F%3E%3CmxCell%20id%3D%221%22%20parent%3D%220%22%2F%3E%3CmxCell%20id%3D%222%22%20value%3D%22%22%20style%3D%22endArrow%3Dclassic%3BstartArrow%3Dclassic%3Bhtml%3D1%3Brounded%3D0%3B%22%20edge%3D%221%22%20parent%3D%221%22%3E%3CmxGeometry%20x%3D%220.0102%22%20width%3D%2250%22%20height%3D%2250%22%20relative%3D%221%22%20as%3D%22geometry%22%3E%3CmxPoint%20x%3D%227760%22%20y%3D%221080%22%20as%3D%22sourcePoint%22%2F%3E%3CmxPoint%20x%3D%227810%22%20y%3D%221030%22%20as%3D%22targetPoint%22%2F%3E%3CmxPoint%20as%3D%22offset%22%2F%3E%3C%2FmxGeometry%3E%3C%2FmxCell%3E%3C%2Froot%3E%3C%2FmxGraphModel%[]&lt;/span&gt;&lt;b&gt;&lt;font style=&quot;color: rgb(0, 0, 0);&quot;&gt;&amp;nbsp;&lt;/font&gt;&lt;/b&gt;&lt;/font&gt;&lt;span style=&quot;background-color: transparent; color: light-dark(rgb(0, 0, 0), rgb(255, 255, 255));&quot;&gt;&amp;nbsp;[###].[###],[#],[#]&lt;/span&gt;&lt;/div&gt;" style="rounded=0;whiteSpace=wrap;html=1;" vertex="1" parent="1">
          <mxGeometry x="8510" y="1195" width="120" height="50" as="geometry" />
        </mxCell>
        <mxCell id="YeXkgbG_geoZ1zjIWWEg-16" value="&lt;b&gt;Router B LAN []&amp;nbsp;&lt;br&gt;&lt;/b&gt;&lt;div&gt;&lt;font style=&quot;background-color: transparent;&quot;&gt;&lt;span style=&quot;color: rgba(0, 0, 0, 0); font-family: monospace; font-size: 0px; text-align: start; text-wrap-mode: nowrap; background-color: transparent;&quot;&gt;%3CmxGraphModel%3E%3Croot%3E%3CmxCell%20id%3D%220%22%2F%3E%3CmxCell%20id%3D%221%22%20parent%3D%220%22%2F%3E%3CmxCell%20id%3D%222%22%20value%3D%22%22%20style%3D%22endArrow%3Dclassic%3BstartArrow%3Dclassic%3Bhtml%3D1%3Brounded%3D0%3B%22%20edge%3D%221%22%20parent%3D%221%22%3E%3CmxGeometry%20x%3D%220.0102%22%20width%3D%2250%22%20height%3D%2250%22%20relative%3D%221%22%20as%3D%22geometry%22%3E%3CmxPoint%20x%3D%227760%22%20y%3D%221080%22%20as%3D%22sourcePoint%22%2F%3E%3CmxPoint%20x%3D%227810%22%20y%3D%221030%22%20as%3D%22targetPoint%22%2F%3E%3CmxPoint%20as%3D%22offset%22%2F%3E%3C%2FmxGeometry%3E%3C%2FmxCell%3E%3C%2Froot%3E%3C%2FmxGraphModel%&lt;/span&gt;&lt;b style=&quot;&quot;&gt;&lt;font style=&quot;color: rgb(0, 0, 0);&quot;&gt;IP&lt;/font&gt;&lt;/b&gt;&lt;/font&gt;&lt;span style=&quot;background-color: transparent;&quot;&gt;&lt;font style=&quot;color: rgb(0, 0, 0);&quot;&gt;:&lt;/font&gt;&lt;/span&gt;&lt;span style=&quot;background-color: transparent; color: light-dark(rgb(0, 0, 0), rgb(255, 255, 255));&quot;&gt;&amp;nbsp;&lt;/span&gt;&lt;font style=&quot;background-color: transparent; color: light-dark(rgb(0, 0, 0), rgb(255, 255, 255));&quot;&gt;&lt;span style=&quot;color: rgba(0, 0, 0, 0); font-family: monospace; font-size: 0px; text-align: start; text-wrap-mode: nowrap; background-color: transparent;&quot;&gt;%3CmxGraphModel%3E%3Croot%3E%3CmxCell%20id%3D%220%22%2F%3E%3CmxCell%20id%3D%221%22%20parent%3D%220%22%2F%3E%3CmxCell%20id%3D%222%22%20value%3D%22%22%20style%3D%22endArrow%3Dclassic%3BstartArrow%3Dclassic%3Bhtml%3D1%3Brounded%3D0%3B%22%20edge%3D%221%22%20parent%3D%221%22%3E%3CmxGeometry%20x%3D%220.0102%22%20width%3D%2250%22%20height%3D%2250%22%20relative%3D%221%22%20as%3D%22geometry%22%3E%3CmxPoint%20x%3D%227760%22%20y%3D%221080%22%20as%3D%22sourcePoint%22%2F%3E%3CmxPoint%20x%3D%227810%22%20y%3D%221030%22%20as%3D%22targetPoint%22%2F%3E%3CmxPoint%20as%3D%22offset%22%2F%3E%3C%2FmxGeometry%3E%3C%2FmxCell%3E%3C%2Froot%3E%3C%2FmxGraphModel%[]&lt;/span&gt;&lt;b&gt;&lt;font style=&quot;color: rgb(0, 0, 0);&quot;&gt;&amp;nbsp;&lt;/font&gt;&lt;/b&gt;&lt;/font&gt;&lt;span style=&quot;background-color: transparent; color: light-dark(rgb(0, 0, 0), rgb(255, 255, 255));&quot;&gt;&amp;nbsp;[###].[###],[#],[#]&lt;/span&gt;&lt;/div&gt;" style="rounded=0;whiteSpace=wrap;html=1;" vertex="1" parent="1">
          <mxGeometry x="8510" y="1343.4" width="120" height="50" as="geometry" />
        </mxCell>
        <mxCell id="YeXkgbG_geoZ1zjIWWEg-17" value="&lt;b&gt;Layer 2 Switch B []&lt;/b&gt;&lt;div&gt;&lt;font style=&quot;background-color: transparent;&quot;&gt;&lt;span style=&quot;color: rgba(0, 0, 0, 0); font-family: monospace; font-size: 0px; text-align: start; text-wrap-mode: nowrap; background-color: transparent;&quot;&gt;%3CmxGraphModel%3E%3Croot%3E%3CmxCell%20id%3D%220%22%2F%3E%3CmxCell%20id%3D%221%22%20parent%3D%220%22%2F%3E%3CmxCell%20id%3D%222%22%20value%3D%22%22%20style%3D%22endArrow%3Dclassic%3BstartArrow%3Dclassic%3Bhtml%3D1%3Brounded%3D0%3B%22%20edge%3D%221%22%20parent%3D%221%22%3E%3CmxGeometry%20x%3D%220.0102%22%20width%3D%2250%22%20height%3D%2250%22%20relative%3D%221%22%20as%3D%22geometry%22%3E%3CmxPoint%20x%3D%227760%22%20y%3D%221080%22%20as%3D%22sourcePoint%22%2F%3E%3CmxPoint%20x%3D%227810%22%20y%3D%221030%22%20as%3D%22targetPoint%22%2F%3E%3CmxPoint%20as%3D%22offset%22%2F%3E%3C%2FmxGeometry%3E%3C%2FmxCell%3E%3C%2Froot%3E%3C%2FmxGraphModel%&lt;/span&gt;&lt;b&gt;&lt;font style=&quot;color: rgb(0, 0, 0);&quot;&gt;IP&lt;/font&gt;&lt;/b&gt;&lt;/font&gt;&lt;span style=&quot;background-color: transparent;&quot;&gt;:&lt;/span&gt;&lt;span style=&quot;color: light-dark(rgb(0, 0, 0), rgb(255, 255, 255)); background-color: transparent;&quot;&gt;&amp;nbsp;&lt;/span&gt;&lt;font style=&quot;color: light-dark(rgb(0, 0, 0), rgb(255, 255, 255)); background-color: transparent;&quot;&gt;&lt;span style=&quot;color: rgba(0, 0, 0, 0); font-family: monospace; font-size: 0px; text-align: start; text-wrap-mode: nowrap; background-color: transparent;&quot;&gt;%3CmxGraphModel%3E%3Croot%3E%3CmxCell%20id%3D%220%22%2F%3E%3CmxCell%20id%3D%221%22%20parent%3D%220%22%2F%3E%3CmxCell%20id%3D%222%22%20value%3D%22%22%20style%3D%22endArrow%3Dclassic%3BstartArrow%3Dclassic%3Bhtml%3D1%3Brounded%3D0%3B%22%20edge%3D%221%22%20parent%3D%221%22%3E%3CmxGeometry%20x%3D%220.0102%22%20width%3D%2250%22%20height%3D%2250%22%20relative%3D%221%22%20as%3D%22geometry%22%3E%3CmxPoint%20x%3D%227760%22%20y%3D%221080%22%20as%3D%22sourcePoint%22%2F%3E%3CmxPoint%20x%3D%227810%22%20y%3D%221030%22%20as%3D%22targetPoint%22%2F%3E%3CmxPoint%20as%3D%22offset%22%2F%3E%3C%2FmxGeometry%3E%3C%2FmxCell%3E%3C%2Froot%3E%3C%2FmxGraphModel%[]&lt;/span&gt;&lt;b&gt;&lt;font style=&quot;color: rgb(0, 0, 0);&quot;&gt;&amp;nbsp;&lt;/font&gt;&lt;/b&gt;&lt;/font&gt;&lt;span style=&quot;color: light-dark(rgb(0, 0, 0), rgb(255, 255, 255)); background-color: transparent;&quot;&gt;[###].[###],[#],[#]&lt;/span&gt;&lt;/div&gt;" style="rounded=0;whiteSpace=wrap;html=1;" vertex="1" parent="1">
          <mxGeometry x="8450" y="1475" width="120" height="50" as="geometry" />
        </mxCell>
        <mxCell id="YeXkgbG_geoZ1zjIWWEg-18" value="&lt;span style=&quot;color: rgb(0, 0, 0); font-family: Helvetica; font-size: 12px; font-style: normal; font-variant-ligatures: normal; font-variant-caps: normal; font-weight: 400; letter-spacing: normal; orphans: 2; text-align: left; text-indent: 0px; text-transform: none; widows: 2; word-spacing: 0px; -webkit-text-stroke-width: 0px; white-space: normal; background-color: rgb(236, 236, 236); text-decoration-thickness: initial; text-decoration-style: initial; text-decoration-color: initial; display: inline !important; float: none;&quot;&gt;Layer 2 Switch B f0:e4:d0:ab:71:82 N/A&lt;/span&gt;" style="text;whiteSpace=wrap;html=1;" vertex="1" parent="1">
          <mxGeometry x="8125" y="1480" width="10" height="40" as="geometry" />
        </mxCell>
        <mxCell id="YeXkgbG_geoZ1zjIWWEg-19" value="Gateway Router WAN bb:0d:95:37:50:c9 128.205.224.146 pfSense 2.7.2&#xa;Gateway Router LAN d3:84:23:a5:b2:e1 172.16.0.1/24" style="text;whiteSpace=wrap;html=1;" vertex="1" parent="1">
          <mxGeometry x="8260" y="580" width="420" height="50" as="geometry" />
        </mxCell>
      </root>
    </mxGraphModel>
  </diagram>
  <diagram id="izoWuTd1RMZM05H3Av4T" name="Page-2">
    <mxGraphModel dx="2128" dy="1344" grid="0" gridSize="10" guides="1" tooltips="1" connect="1" arrows="1" fold="1" page="0" pageScale="1" pageWidth="850" pageHeight="1100" math="0" shadow="0">
      <root>
        <mxCell id="0" />
        <mxCell id="1" parent="0" />
      </root>
    </mxGraphModel>
  </diagram>
</mxfile>
